<svg xmlns="http://www.w3.org/2000/svg" width="165" height="73" viewBox="0 0 165 73">
  <g id="Groupe_70" data-name="Groupe 70" transform="translate(-87 -28)">
    <g id="Groupe_1" data-name="Groupe 1" transform="translate(-178 -464)">
      <text id="eStage" transform="translate(309 550)" fill="#161616" stroke="rgba(0,0,0,0)" stroke-width="1" font-size="48" font-family="Oswald-Regular, Oswald"><tspan x="0" y="0">eStage</tspan></text>
      <path id="gesture" d="M3.4,7.622,0,4.316q.459-.551,1.745-1.837A7.255,7.255,0,0,1,7.071,0a5,5,0,0,1,3.26,1.378A5.266,5.266,0,0,1,11.939,5.6a7.911,7.911,0,0,1-.551,3.122A20.975,20.975,0,0,1,9.459,12.03a30.755,30.755,0,0,0-3.673,6.888,5.818,5.818,0,0,0-.23,2.709q.229,1.056.964,1.057.827,0,2.2-1.653,1.469-1.561,4.408-5.327a19.68,19.68,0,0,1,4.224-3.765,9.631,9.631,0,0,1,5.51-1.745,6.7,6.7,0,0,1,5.74,2.526,10.879,10.879,0,0,1,2.159,5.647h4.776v4.867H30.765q-.551,6.337-3.352,9.184a8.2,8.2,0,0,1-5.831,2.847,6.246,6.246,0,0,1-4.454-1.791,5.692,5.692,0,0,1-1.883-4.27q0-3.031,2.755-6.383a12.233,12.233,0,0,1,7.806-4.179v-.276a6.231,6.231,0,0,0-.23-1.148,5.347,5.347,0,0,0-.459-.964,1.963,1.963,0,0,0-1.01-.827,4.586,4.586,0,0,0-1.7-.276,5.469,5.469,0,0,0-3.582,1.837,54.381,54.381,0,0,0-4.408,4.867Q12.949,23.6,12.26,24.426a12.27,12.27,0,0,1-1.791,1.7,5.962,5.962,0,0,1-2.112,1.148,5.384,5.384,0,0,1-5.143-.827A6.926,6.926,0,0,1,.551,20.571,9.858,9.858,0,0,1,1.1,17.586,20.34,20.34,0,0,1,2.48,14.327q.827-1.56,1.515-2.755T5.418,9.321a7.543,7.543,0,0,0,.735-1.148Q7.806,5.6,6.8,5.234,6.061,4.958,3.4,7.622ZM21.674,30.489A3.352,3.352,0,0,0,24.2,28.836,10.662,10.662,0,0,0,25.807,23.6a7.791,7.791,0,0,0-4.179,2.48A5.11,5.11,0,0,0,20.2,29.02a1.357,1.357,0,0,0,.459,1.056,1.478,1.478,0,0,0,1.01.413Z" transform="translate(265 519)" fill="#161616"/>
    </g>
  </g>
</svg>
