<svg xmlns="http://www.w3.org/2000/svg" viewBox="0 0 169.23 80.22"><g id="Calque_2" data-name="Calque 2"><g id="logo-footer"><path id="Tracé_3" data-name="Tracé 3" d="M58.87,60H50.19V79.87h8.56c7.55,0,12-4.26,12-10v0C70.7,64.1,66.36,60,58.87,60ZM64.75,70c0,3.21-2.31,5-5.79,5H55.53V64.88H59c3.47,0,5.78,1.85,5.78,5Z"/><rect id="Rectangle_8" data-name="Rectangle 8" x="74.1" y="59.87" width="5.53" height="19.85"/><path id="Tracé_4" data-name="Tracé 4" d="M143.13,69.9v-.06a5.15,5.15,0,0,0-4.95-5.35H138a5,5,0,0,0-5,5.08v.27A5.16,5.16,0,0,0,138,75.2h.13a5.06,5.06,0,0,0,5.06-5.07c0-.08,0-.15,0-.23m-15.77,0v-.06a10.7,10.7,0,0,1,21.39-.06v.06a10.7,10.7,0,0,1-21.39.06"/><path id="Tracé_5" data-name="Tracé 5" d="M155.9,69.76,149.38,60h6.32l3.52,5.59L162.77,60H169l-6.53,9.7,6.81,10.16h-6.32l-3.8-6-3.84,6h-6.18Z"/><path id="Tracé_6" data-name="Tracé 6" d="M22.32,59.85V79.71H16.93V68.21l0,0V67.15l-.68,1-1,1.49v0L11.15,76l-2.4-3.67-1.92-3h0l-.76-1.17-.67-1V79.71H0V59.94H0v-.09H7.19l4,6,3.95-6Z"/><path id="Tracé_7" data-name="Tracé 7" d="M101.74,79.87h6.54L95.34,60,82.4,79.87H89l6.4-9.69Z"/><path id="Tracé_8" data-name="Tracé 8" d="M108.36,60h-6.54l12.94,19.86L127.7,60h-6.55l-6.4,9.69Z"/><g id="Groupe_67" data-name="Groupe 67"><path id="Tracé_9" data-name="Tracé 9" d="M74.5,0H63.81L85,32.46,106.1,0H95.4L85,15.83Z" style="fill:#ee232d"/><path id="Tracé_10" data-name="Tracé 10" d="M63.82,16.52V39.83h9V30.47Z" style="fill:#ee232d"/><path id="Tracé_11" data-name="Tracé 11" d="M106.09,16.52V39.83h-9V30.47Z" style="fill:#ee232d"/></g><path id="Tracé_12" data-name="Tracé 12" d="M45.12,75.08v4.68H27.78V59.92H45V64.6H33.24v3H44V72H33.24v3.15H45.12Z"/></g></g></svg>